# xmcd CD database file
#
# Track frame offsets:
#	150
#	24527
#	46993
#	61484
#	90975
#	109934
#
# Disc length: 1745 seconds
#
# Revision: 0
# Processed by: cddbd v1.5.2PL0 Copyright (c) Steve Scherf et al.
# Submitted via: CDex 1.50beta10
#
DISCID=4506cf06
DTITLE=JSBL - Twice Upon Two Times
DYEAR=2008
DGENRE=Jazz
TTITLE0=The Flu
TTITLE1=Der Mann Mit Den Schwankungen
TTITLE2=Jimbo
TTITLE3=Rekindle Of The Libido
TTITLE4=Fooley By Needs
TTITLE5=Parental Square
EXTD=YEAR: 2008
EXTT0=
EXTT1=
EXTT2=
EXTT3=
EXTT4=
EXTT5=
PLAYORDER=
